<svg xmlns="http://www.w3.org/2000/svg" aria-hidden="true" style="position:absolute;width:0;height:0;overflow:hidden">
  <defs>
    <symbol id="icon-antenna" viewBox="0 0 32 32">
      <path fill="#2e2f42" d="m30.8 22.1-8.5-8.5 1-4.6.7.1a2.2 2.2 0 1 0-2-1.4l-5 .6L9 .2a.5.5 0 0 0-.4-.2c-.1 0-.3 0-.4.2L6.7 1.7c-.2.2-.2.5 0 .7l.8.8A15 15 0 0 0 10.2 21v6.7H3.6A2.7 2.7 0 0 0 1 30.4v1c0 .4.2.6.5.6H26c.3 0 .6-.2.6-.5v-1.1c0-1.5-1.2-2.7-2.7-2.7h-6.4V25a15 15 0 0 0 10-1.5l1 .9.3.1.4-.1 1.5-1.5c.2-.3.2-.6 0-.8zM23.3 6.2a1 1 0 1 1 .7 1.9 1 1 0 0 1-.7-1.9zM22 9.7l-.6 3-1.1-1.2L22 9.7zm-.6-.9-1.9 2L18 9.2l3.4-.5zm2.6 20c.9 0 1.6.7 1.6 1.6v.5H2.1v-.5c0-.9.8-1.6 1.6-1.6H24zm-7.5-2.1v1h-5.3v-1h5.3zm-5.3-1.1v-4c0-1.3 1.2-2.4 2.7-2.4s2.6 1 2.6 2.3v4.1h-5.3zm6.4-1.7v-2.4c0-1.8-1.7-3.4-3.7-3.4-1.4 0-2.6.7-3.3 1.8A14 14 0 0 1 8.3 4L27 22.7a13.8 13.8 0 0 1-9.3 1.2zm11.3-.7L7.9 2l.7-.7 8 8 13 13.2-.7.7z" style="fill:var(--color1, #2e2f42)"/>
      <path fill="#4d5ae5" d="M13.9 20.3a1.6 1.6 0 1 0 0 3.2 1.6 1.6 0 1 0 0-3.2zm.3 2-.3.1a.5.5 0 0 1 0-1 .5.5 0 0 1 .3.8z" style="fill:var(--color2, #4d5ae5)"/>
    </symbol>
    <symbol id="icon-astronaut" viewBox="0 0 32 32">
      <path fill="#4d5ae5" d="M32 4.5c0-.2-.3-.3-.5-.3l-1.9-.3-.8-1.7c-.2-.4-.8-.4-1 0L27 3.9l-2 .3a.5.5 0 0 0-.2.9L26 6.4l-.3 2c0 .1 0 .3.2.4.2.2.4.2.6 0l1.7-.8 1.7.9a.5.5 0 0 0 .8-.6l-.3-1.9 1.3-1.3c.2-.2.2-.4.2-.6zM29.5 6c-.1 0-.2.2-.1.4l.1 1.1-1-.5a.5.5 0 0 0-.4 0l-1 .5.1-1-.1-.5-.8-.8 1.1-.2c.2 0 .3-.1.4-.3l.5-1 .5 1c0 .2.2.3.4.3l1.1.2-.8.8zm-3.4 14.5h-1v1h1v-1zm0 2.2h-1v1h1v-1zm1.1-1.1h-1v1h1v-1zm-2.2 0h-1v1h1v-1zm-2.6 4.8h-1v1h1v-1zm0 2.1h-1v1h1v-1zm1.1-1h-1.1v1h1v-1zm-2.2 0h-1v1h1v-1zM16 24.3h-1v1h1v-1zm0 2.1h-1v1h1v-1zm1-1.1h-1v1h1v-1zm-2 0h-1.1v1h1v-1zM5.9 6.1H4.8v1h1v-1zm0 2.2H4.8v1h1v-1zM7 7.2H5.8v1h1v-1zm-2.2 0h-1v1h1v-1z" style="fill:var(--color2, #4d5ae5)"/>
      <path fill="#2e2f42" d="M24.7 14.2c-.3-.4-.7-.7-1.2-.7-.5-.1-1 0-1.3.3l-1.3 1-1.9 1.4-1.3-.6a7 7 0 0 0-2.9-13.2A7 7 0 0 0 9 13H6l-3.2 1.6-2 1a1.8 1.8 0 0 0 1 3.2c.3 0 .6 0 .8-.2L4 18l2.3-1.2h1.3l-5.4 5.4-1.3 1.3a1.7 1.7 0 0 0 0 2.4 1.7 1.7 0 0 0 2.3 0l1.3-1.3 1.8-1.3.9.9-1.8 1.7-1.3 1.4a1.7 1.7 0 0 0 0 2.3 1.7 1.7 0 0 0 2.3 0l3.5-3.4 1-1 5.2-5.7 3.5.5h.2l.1-.1 3.3-2.1 1.3-1.3c.7-.6.8-1.6.2-2.3zM2.1 17.8h-.5a.7.7 0 0 1-.2-1.2l1.3-.7.4 1.3-1 .6zm3.5-1.9-1.5.8-.5-1.2 2-1v1.4zm15.1-6.6c0 1-.2 1.8-.6 2.6l-4.2-2c0-.5-.3-1-.7-1.3l1.4-4.9a6 6 0 0 1 4.1 5.6zM9 9.3a5.9 5.9 0 0 1 6.7-5.8L14 8.3a1.9 1.9 0 1 0 0 3.7c.7 0 1.3-.4 1.6-1l3.9 1.8A5.9 5.9 0 0 1 8.9 9.3zm6 .8a.8.8 0 0 1-1.6 0 .8.8 0 0 1 1.6 0zm-12.4 15c-.3.3-.7.3-.9 0a.6.6 0 0 1 0-.8l1-1 .8.9-1 1zM5.7 29c-.3.2-.6.2-.9 0a.6.6 0 0 1 0-.9l1-1 .8 1-1 .9zm3.5-3.5-1.8 1.8-.9-.9 1.8-1.7.1-.2V24h-.1l-1.6-1.7h-.1l-.1-.1H6l-1.8 1.4-.9-1 2.4-2.3 4.4 4.3-1 1zm6.8-7a.6.6 0 0 0-.4 0v.1l-4.8 5.2-4.3-4.2 2.8-2.9a.5.5 0 0 0-.4-.9H6.7v-1.6H10a7 7 0 0 0 6.2 2l.1.1 2.5 1 .1.7.2 1-3-.5zm4 .2-.3-1.6 1.5-1 .9 1.2-2 1.4zm3.8-2.9-.9.8-.9-1.2.8-.6c.2-.2.4-.2.6-.2a.7.7 0 0 1 .4 1.2z" style="fill:var(--color1, #2e2f42)"/>
      <path fill="#2e2f42" d="m13.6 18.5-2.1-2a.5.5 0 0 0-.8 0l-2.1 2a.5.5 0 0 0 0 .8l2.1 2.1a.5.5 0 0 0 .8 0l2.1-2.1a.5.5 0 0 0 0-.8zm-2.5 1.8-1.4-1.4 1.4-1.4 1.4 1.4-1.4 1.4zM17.2 5l-.3 1.1s1.7.5 1.7 2.2h1.1c0-2-1.7-3-2.5-3.2zm2.5 4.3h-1v1h1v-1z" style="fill:var(--color1, #2e2f42)"/>
    </symbol>
    <symbol id="icon-clock" viewBox="0 0 32 32">
      <path fill="#2e2f42" d="M31.3 15.3a15.3 15.3 0 1 0-19.8 14.6h.4l.2-.4 4-12.3a2 2 0 1 0-1-3.6l-5-5.1a.6.6 0 0 0-1 .9l5.2 5a2 2 0 0 0 .5 2.4l-3.7 11.7a14 14 0 1 1 10.6-.4l-.4-1.9a.6.6 0 0 0-1-.3l-3.9 3.4a.6.6 0 0 0 .2 1.1l5 1.6a.6.6 0 0 0 .8-.8l-.4-1.8c5.6-2.4 9.3-8 9.3-14.1zM16 14.7a.6.6 0 1 1 0 1.2.6.6 0 0 1 0-1.2zm2 14.8 2.3-2 .6 3-2.8-1z" style="fill:var(--color1, #2e2f42)"/>
      <path fill="#4d5ae5" d="M15.4 3.2v1.3a.6.6 0 1 0 1.2 0V3.2a.6.6 0 0 0-1.2 0zM3.9 14.7a.6.6 0 0 0 0 1.2h1.3a.6.6 0 1 0 0-1.2H3.9zM28.1 16a.6.6 0 1 0 0-1.3h-1.3a.6.6 0 0 0 0 1.2h1.3z" style="fill:var(--color2, #4d5ae5)"/>
    </symbol>
    <symbol id="icon-Customers-Logo1" viewBox="0 0 59 32">
      <path d="m21.7 4 4 3.8h-7.4v18.5h19.4v-7l4 3.8V4h-20zm15.8 14.8L26.2 8h11.3v10.8zM34 23.6H21.4V11.2h.9v11.6H34v.8zm-10 6.1-.5-1H23l.7 1.4v.7h.4v-.7l.6-1.3h-.3l-.5 1zm1.7-1h.1l.8 2.1H26l-.2-.5h-.7l-.2.5h-.4l.8-2h.2zm-.4 1.4h.6l-.3-.9-.3.9zm2.5-.4-.2-.2V29l.2-.2h.6a.4.4 0 0 1 .1.7l-.1.1-.2.1.4.5.1-.4h.3v.3l-.1.3.2.4h-.4v-.1h-.3a1 1 0 0 1-.7 0 .6.6 0 0 1-.2-.1V30l.1-.1.2-.2zm.2.2-.2.2v.4l.1.1h.2a.5.5 0 0 0 .3 0L28 30zm0-.3.2-.1.1-.1c.1 0 0-.1 0-.2v-.1c0-.1-.1 0-.2 0a.2.2 0 0 0-.2 0v.2l.1.2zm3.6.5h-.3l-.1.3-.1.1h-.5l-.1-.1-.1-.2v-1l.2-.1c0-.1.1 0 .2 0h.3l.1.1v.2h.4l-.1-.3-.3-.3h-.7l-.3.2-.1.3-.1.4v.6l.2.3a.7.7 0 0 0 .6.2h.4l.3-.3.1-.3zm2-.2v-.2l-.1-.4-.2-.3-.3-.2h-.6l-.3.2-.2.3v1c0 .2.1.2.2.3a.8.8 0 0 0 .6.2h.3l.3-.2.2-.3v-.4zm-.4-.2v.5l-.1.2-.2.1c0 .1-.1 0-.2 0h-.2l-.2-.1v-1.2a.4.4 0 0 1 .4-.2h.2l.2.2v.5z" style="fill:var(--color3, #8e8f99)"/>
    </symbol>
    <symbol id="icon-Customers-Logo2" viewBox="0 0 59 32">
      <path d="M28.6 3.4h-.7a14.5 14.5 0 0 0-.7 0c-2 .1-4.1.6-6 1.5l-.3.1v12.7l.6-.2a22.5 22.5 0 0 1 6.3-1V18H27a18.5 18.5 0 0 0-7.8 2.2V4a17 17 0 0 1 8.6-2.4h.3a15.7 15.7 0 0 1 3 .4v1.6a13 13 0 0 0-2.1-.3h-.5zm3 1.7h1A18 18 0 0 0 41.3 3v16a17 17 0 0 1-11.8 1.9v-16a13.3 13.3 0 0 0 2 .3zm8 0-.6.3-1.6.5a19.6 19.6 0 0 1-5.8.5H31v13h.4l1.1.1a15.3 15.3 0 0 0 6.8-1.5l.2-.2V5.2zM20.4 25.8a.9.9 0 0 0-.6-.2 1 1 0 0 0-.7.2l-.2.3v3l.3.3.3.1h.6a1 1 0 0 0 .6-.8v-.3H20v.4l-.1.1-.1.1h-.4v-2.8a.3.3 0 0 1 .3-.2h.1l.1.2.1.3v.1h.6v-.2a1 1 0 0 0-.3-.7zm3.4 0a1 1 0 0 0-1-.2 1 1 0 0 0-.5.5l-.1.4V29l.3.3.3.2a1 1 0 0 0 1-.2.9.9 0 0 0 .3-.7v-2L24 26a1 1 0 0 0-.2-.3zm-.3 2.8a.4.4 0 0 1 0 .3.4.4 0 0 1-.6 0l-.1-.1c-.1-.1 0-.1 0-.2v-2a.4.4 0 0 1 0-.4.4.4 0 0 1 .6 0l.1.2c.1 0 0 0 0 .1v2.1zm4.7.9v-3.9h-.5l-.8 2-.7-2h-.5v4h.5V27l.6 1.7h.3l.5-1.7v2.4h.6zm3.2-3.6-.3-.2c-.1 0-.3-.1-.4 0h-.9v3.8h.6V28h.3l.5-.1.3-.3.1-.3a2.8 2.8 0 0 0 0-1l-.2-.4zm-.3 1.2v.2l-.2.1h-.5v-1.3h.5l.2.2v.8zm2.9-1.5h-.4l-.9 4h.6l.2-.9h.7l.2.8h.6l-1-3.9zm-.5 2.6.3-1.5.3 1.5h-.6zm4.2-.2-.9-2.4h-.5v4h.6v-2.4l.8 2.3h.5v-3.9h-.5V28zm3.4-2.4-.4 1.6-.5-1.6h-.6l.8 2.3v1.6h.5V28l.8-2.3h-.6zm-22.2 5.1h.2v.7h.2v-.7h.3v-.2h-.7v.2zm2.2-.2-.3 1h.2v-.3h.4v.2h.3l-.4-.9h-.2zm0 .6.1-.4.1.4h-.2zm2.3-.1h.2v.2h-.2a.2.2 0 0 1-.2 0v-.3c0-.2 0-.3.2-.3a.2.2 0 0 1 .2.2h.2c0-.2-.2-.3-.4-.3l-.3.1-.1.2v.5a.4.4 0 0 0 .4.1l.4-.1v-.4h-.4v.2zm2.3-.5h-.2v1h.6v-.2h-.4v-.8zm1.9 0h-.2v1h.2v-1zm1.9.6-.4-.6H29v1h.1v-.7l.4.6h.2v-.9h-.2v.6zm1.7-.1h.5-.5v-.2h.5v-.2H31v1h.7v-.2h-.5V31zm4.2-.1H35v-.4h-.2v1h.2V31h.4v.4h.2v-.9h-.2v.4zm1.7.1h.5-.6v-.2h.5v-.2h-.7v1h.7v-.2H37V31zm2.3 0c.2 0 .3-.1.3-.2a.2.2 0 0 0-.1-.2l-.3-.1H39v1h.2V31h.2v.1l.2.3h.3l-.2-.2-.2-.2zm-.1-.1H39v-.2h.4v.1h-.2zm1.9.1h.5-.5v-.2h.5v-.2H41v1h.7v-.2h-.5V31z" style="fill:var(--color3, #8e8f99)"/>
    </symbol>
    <symbol id="icon-Customers-Logo3" viewBox="0 0 59 32">
      <path d="m21 28.1.2.2a1 1 0 0 1-.3.2h-1a1 1 0 0 1-.4-.2 1 1 0 0 1-.2-.3 1 1 0 0 1 0-.9 1 1 0 0 1 .6-.5 1.5 1.5 0 0 1 1 0l.3.1-.1.2h-.4a.9.9 0 0 0-.2-.2 1.2 1.2 0 0 0-.5 0l-.3.2-.2.3v.7a.7.7 0 0 0 .4.4h.7a.8.8 0 0 0 .4-.2zm3.7-.6-.1.5-.2.3a1 1 0 0 1-.4.2h-1l-.3-.2a1 1 0 0 1-.3-.4 1 1 0 0 1 0-.8 1 1 0 0 1 .6-.5h1l.4.2a1 1 0 0 1 .3.7zm-.4 0v-.3a.7.7 0 0 0-.4-.4h-.7l-.3.1-.2.3v.7a.7.7 0 0 0 .5.4h.7l.2-.2.2-.2v-.4zm2.9.4.9-1.3h.3v2h-.3V27l-.8 1.2H27l-.9-1.3v1.6H26v-2h.3l.8 1.3zm3-.1v.7h-.3v-2H31l.3.2.1.2a.6.6 0 0 1 0 .5s0 .2-.2.2l-.2.1h-.8zm0-.2h.6l.2-.2h.1V27l-.1-.2a.7.7 0 0 0-.4 0h-.4v.8zm4.2.9h-.2a.1.1 0 0 1-.1 0l-.2-.5h-1.1l-.2.5a.1.1 0 0 1-.1 0h-.3l1-2h.3l1 2zm-1.5-.7h.9l-.4-.8v-.2h-.1v.2l-.4.8zm2.9-1.3 1.4 1.6v-1.6h.3v2h-.2L35.8 27v1.5h-.3v-2h.2zm4 1.2v.8h-.3v-.8l-.9-1.2h.4l.6.9v.1h.1v-.1l.6-.8h.4l-.9 1.1zM27 23l.4.1c2.2-.8 4-2.1 5.2-3.8s1.9-3.6 1.8-5.6l-2.3-2c.5 2 .2 4.3-.7 6.3S29 21.8 27 23.1z" style="fill:var(--color3, #8e8f99)"/>
      <path d="M26.2 23c2.2-1.3 3.8-3.1 4.7-5.2s1-4.4.5-6.6L28 8.3A12 12 0 0 1 26.2 23zm11.3-7a10.7 10.7 0 0 1-5.8 6.8 10.8 10.8 0 0 0 7.2-5.6L37.5 16z" style="fill:var(--color3, #8e8f99)"/>
      <path d="m37 15.7-2-1.6c0 1.8-.6 3.7-1.8 5.3s-2.8 2.9-4.7 3.8l1.3-.1a11.2 11.2 0 0 0 7.2-7.4zM26.4 7.1l-2.3-2c-2 .7-3.8 2-5 3.5s-2 3.4-2 5.2c0 2.1.9 4.1 2.4 5.8s3.6 2.8 6 3.3c2-2.2 3.3-5 3.5-7.8s-.7-5.6-2.6-8zm15.9 8.3c0-2.5-1.2-4.8-3.2-6.6s-4.8-2.7-7.7-2.7c-1.4 0-2.7.2-4 .6l14.2 12a8 8 0 0 0 .7-3.3z" style="fill:var(--color3, #8e8f99)"/>
    </symbol>
    <symbol id="icon-Customers-Logo4" viewBox="0 0 59 32">
      <path d="M13.8 12.3c-1.4 0-2.5 1-2.5 2.2 0 1.3 1 2.2 2.5 2.2 1.3 0 2.4-1 2.4-2.2 0-1.2-1-2.2-2.4-2.2zm18.2-.7c0-1.7-.8-3.4-2.1-4.6a7.6 7.6 0 0 0-10.1.1 6.3 6.3 0 0 0-2.1 4.5V21S32 19.6 32 11.6zM6.3 24c0 1.3.5 2.4 1.4 3.3s2.2 1.3 3.6 1.3c1.3 0 2.5-.5 3.5-1.3s1.4-2 1.4-3.2v-6.6s-10 1-10 6.6zm5 1.3-.8-.2a1.1 1.1 0 0 1-.5-1.2c0-.3.2-.5.3-.6l.7-.4.8.1c.3.1.4.2.5.4a1 1 0 0 1-.1 1.5 1.3 1.3 0 0 1-1 .4zm9-2.1v2.4h-.5v-2.4h.5zm1 1v.4h-1v-.4h1zm.1-1v.3h-1.2v-.3h1.2zm2.3 1.1v.6l-.3.4-.3.2a1 1 0 0 1-.4.1 1 1 0 0 1-.4 0 1 1 0 0 1-.4-.3 1 1 0 0 1-.2-.4v-1.1l.2-.4.4-.2h.8l.3.2.3.4v.5zm-.5.1V24l-.1-.3-.2-.1h-.4l-.2.1-.1.3v.8l.1.2.2.2h.4l.2-.2v-.2l.1-.4zm2.2.6v-.2h-.1l-.2-.2H25l-.3-.2-.3-.1-.2-.2v-.6l.2-.2.3-.1a1.3 1.3 0 0 1 .8 0c.2 0 .3.2.3.3l.2.4h-.5v-.2l-.2-.1-.2-.1h-.3v.1l-.1.2v.2c0 .1.2 0 .2 0l.2.2.4.1.3.2.1.2v.5l-.2.2-.3.2h-.7a1 1 0 0 1-.3-.2l-.2-.2-.1-.4h.5v.2l.1.1.2.1h.4l.1-.1v-.2zm1.9-1.8v2.4h-.5v-2.4h.5zm.7 0v.3h-2v-.3h2zm2 2v.4h-1.3v-.4H30zm-1.2-2v2.4h-.5v-2.4h.5zm1 1v.3h-1.1v-.4h1.1zm.2-1v.3h-1.3v-.3H30zm.3 0h1.3c.2 0 .3.2.4.3v.7l-.2.3-.3.1h-.9v-.3h.8l.1-.2v-.4l-.1-.1c-.1-.1-.1 0-.2 0h-.4v2h-.5V23zm1.3 2.4-.5-1.1h.5l.6 1h-.6zm2.7-.9h-.7v-.4h.9l.1-.2v-.3l-.1-.2h-.7v2h-.5V23h1c.1 0 .3 0 .4.2a.7.7 0 0 1 .5.7l-.1.4c-.1.2-.2.2-.4.2l-.4.1zm2.9.5v.4h-1.3v-.4h1.3zm-1.2-2v2.4h-.5v-2.4h.5zm1 1v.3h-1.1v-.4h1zm.2-1v.3h-1.3v-.3h1.3zm1.4 0v2.4H38v-2.4h.5zm.7 0v.3h-2v-.3h2zm2 2v.4h-1.4v-.4h1.3zm-1.2-2v2.4h-.5v-2.4h.5zm1 1v.3h-1.2v-.4h1.2zm.1-1v.3H40v-.3h1.3zm.3 0H43c.2 0 .3.2.3.3l.1.4v.3l-.2.3-.3.1H42v-.3h.8l.1-.2v-.4l-.1-.1H42v2h-.5V23zm1.4 2.4-.6-1.1h.6l.5 1H43zM45 25v-.2l-.2-.2h-.3a3 3 0 0 1-.3-.2l-.3-.1-.1-.2-.1-.3v-.3l.3-.2.2-.1a1.3 1.3 0 0 1 .9 0l.3.3.1.4H45v-.2l-.2-.1-.2-.1h-.2l-.2.1v.4l.1.1c.1.1.1 0 .2 0l.2.2.3.1.3.2.1.2.1.2v.3l-.2.2-.3.2h-.7a1 1 0 0 1-.4-.2l-.2-.2v-.4h.4v.2l.2.1.1.1h.4l.2-.1V25z" style="fill:var(--color3, #8e8f99)"/>
    </symbol>
    <symbol id="icon-Customers-Logo5" viewBox="0 0 59 32">
      <path d="m15.3 25.4.2.5v.4l-.3.3c-.3.2-.6.3-1 .3h-1.6v-3.5h1.6c.3 0 .7 0 1 .2l.2.3v.3c0 .2 0 .4-.2.6a1 1 0 0 1-.5.3c.3 0 .5.1.6.3zm-2-.6h1.2l.1-.2c.1 0 0-.2 0-.2a.4.4 0 0 0-.1-.4.7.7 0 0 0-.5 0h-.6v.8zm1.3 1.4V26l.1-.2v-.2l-.1-.1a.8.8 0 0 0-.5-.2h-.8v1h.8l.5-.1zm4.1.7-1-1.4h-.3v1.4h-.8v-3.5h1.5c.4 0 .7 0 1 .3.2.1.4.4.4.7s0 .5-.3.7c-.1.2-.4.3-.7.4l1 1.4h-.8zM17.4 25h.6c.5 0 .7-.2.7-.5v-.2l-.2-.2a.8.8 0 0 0-.5-.2h-.6V25zm5.6 1.2h-1.6l-.3.7h-.8l1.4-3.5h.9l1.4 3.5h-.8l-.3-.7zm-.3-.6-.5-1.5-.6 1.5h1.1zm5.6 1.3h-.8l-1.7-2.4v2.4H25v-3.5h.8l1.7 2.4v-2.4h.8v3.5zm4.4-.9c-.1.3-.4.5-.7.6a2 2 0 0 1-1 .3h-1.4v-3.5h1.3c.4 0 .8 0 1.1.2.3.1.6.3.7.6.2.3.3.6.3 1s-.1.5-.3.8zm-.9 0c.3-.3.4-.6.4-.9s-.1-.6-.4-.8c-.2-.2-.6-.3-1-.3h-.5v2.2h.6c.3 0 .7 0 1-.3zM23.4 3.9s10 3.4 9.9 8.3v8.4s-10-3.4-9.9-8.4V4zm18.8 14.7c1.9-1.2 4-1.9 6.4-2.1v-2.6c-2.7.9-4.9 2.6-6.4 4.7z" style="fill:var(--color3, #8e8f99)"/>
      <path d="M41 19.4c1.6-2.8 4.3-5 7.6-6V5.7s-14.3 4.9-14 11.9v11.9l1.6-.6v-1.2a12 12 0 0 1 4.9-8.4z" style="fill:var(--color3, #8e8f99)"/>
      <path d="M39.7 23.8c0-.8.2-1.6.5-2.4a11 11 0 0 0-3 7.2l2.7-1.3c-.2-1.2-.3-2.3-.2-3.5zm.6.1c-.1 1 0 2 .1 3 4-2 8.3-5.3 8.2-9.2v-.4c-2.8.3-5.4 1.4-7.5 3.2a12 12 0 0 0-.8 3.4z" style="fill:var(--color3, #8e8f99)"/>
    </symbol>
    <symbol id="icon-Customers-Logo6" viewBox="0 0 59 32">
      <path d="M30.6 15.7a2 2 0 0 1-.4-1.2V13c0-.5.2-.9.4-1.2s.6-.4 1.2-.4c.5 0 .9.2 1 .4.3.3.4.6.4 1v.4h-1v-1a.5.5 0 0 0-.4-.1h-.4l-.1.3v3l.2.1h.6l.2-.3v-.8h1v.4c0 .3-.2.7-.4 1-.2.3-.6.4-1.1.4s-1-.1-1.2-.4zm3.9 0c-.2-.3-.4-.6-.4-1.1v-1.8c0-.5.2-.8.4-1s.6-.5 1.2-.5c.5 0 1 .2 1.2.4.2.3.3.6.3 1.1v1.8c0 .5 0 .8-.3 1.1s-.7.4-1.2.4-1-.1-1.2-.4zm1.6-.4c.1-.2.2-.4.1-.5V12l-.3-.1c0-.1-.1 0-.2 0h-.3l-.1.1-.2.5v2.2c0 .2 0 .3.2.5l.1.1h.5l.2-.1zm2.3-3.9h1l.7 3.2.8-3.2h1L42 16h-.7l-.1-3.2-.8 3.2H40l-.8-3.2V16h-.8v-4.6zm4.7 0h1.6c1 0 1.4.4 1.4 1.3 0 .8-.5 1.3-1.5 1.3h-.5v2h-1v-4.6zm1.4 2a.8.8 0 0 0 .5-.2l.2-.5v-.4l-.2-.1V12a1 1 0 0 0-.5-.1H44v1.4h.4zm3-2h1l1 4.6h-.8l-.2-1h-1l-.2 1h-.9l1-4.6zm.9 3-.4-2-.4 2h.8zm2.1-3h.6l1.3 2.6v-2.6h.8V16h-.6l-1.3-2.7V16h-.8v-4.6zm4.6 2.9-1-2.9h.9l.6 1.8.6-1.8h1L56 14.3V16h-1v-1.7zM32 18v.3h-.7v1.9H31v-2h-.8V18H32zm2.6 2.2h-.3V20l-.3-.5h-1.1l-.3.5h-.3l1-2h.3l1 2zm-1.6-.8h.9l-.4-.9v-.2l-.1.1v.1l-.4.9zm3.3.6h.1a1.2 1.2 0 0 0 .3-.1h.2v-.5h-.5V19h.8v.9a1.5 1.5 0 0 1-.7.2h-.8l-.4-.3a1 1 0 0 1-.2-.4L35 19v-.4l.3-.4.4-.2a1.6 1.6 0 0 1 .8 0 1.3 1.3 0 0 1 .6.2v.1h-.4a1 1 0 0 0-.3-.1 1.5 1.5 0 0 0-.6 0l-.3.2-.2.3v.7l.2.2a.8.8 0 0 0 .7.3zm3.1 0h1v.2H39V18h.4v2zm2.1.2h-.3V18h.3v2.2zm1.3-2.2 1.4 1.7V18h.3v2.2h-.2l-1.5-1.7v1.7h-.3V18h.2zm4.2 0v.3h-1.2v.7h1v.2h-1v.7H47v.3h-1.5V18H47zM12.1 5 27 8.5v12.7l-15-3.6V5zm-1-1.1v14.3l16.7 4.1V8L11.2 3.9z" style="fill:var(--color3, #8e8f99)"/>
      <path d="M20.1 29 3.4 25V10.4l16.7 4.1V29z" style="fill:var(--color3, #8e8f99)"/>
      <path d="M11.4 4.8 26 8.4l-6.2 5.3-14.6-3.6 6.2-5.3zm-.2-1-7.8 6.7 16.7 4.1L27.8 8 11.2 3.9zM21 28.2l6.8-5.9-6.8-1.6v7.5z" style="fill:var(--color3, #8e8f99)"/>
    </symbol>
    <symbol id="icon-diagram" viewBox="0 0 32 32">
      <path fill="#4d5ae5" d="M15 15h1v4.8h-1V15zm4.2 2.1h1v2.7h-1V17zm-8.5 1.6h1v1h-1v-1zm-3.2-.5h1v1.6h-1v-1.6z" style="fill:var(--color2, #4d5ae5)"/>
      <path fill="#2e2f42" d="M1.6 28.3h25.6c.9 0 1.6-.7 1.6-1.6v-2.1c0-1-.7-1.6-1.6-1.6h-.5V9.7l3-2.9a1.6 1.6 0 1 0-.8-.8l-2.2 2.2V7c0-1-.8-1.6-1.6-1.6H3.7c-.9 0-1.6.7-1.6 1.6v16h-.5c-.9 0-1.6.7-1.6 1.6v2c0 1 .7 1.7 1.6 1.7zM30.4 4.8a.5.5 0 1 1 0 1.1.5.5 0 0 1 0-1zM3.2 7c0-.3.2-.6.5-.6h21.4c.2 0 .5.3.5.6v2.2l-1 1V8c0-.3-.3-.5-.6-.5H4.8c-.3 0-.5.2-.5.5v13.4c0 .3.2.5.5.5H24c.3 0 .5-.2.5-.5v-9.7l1-1V23H3.3V7zM8 13.9a1.6 1.6 0 1 0 1.1 2.7l1.9 1 .6-.1 4-4.5 3.8 3 .7-.1 3.4-3.2v8.1H5.3V8.6h18.2v2.6l-3.8 3.6-4-3a.5.5 0 0 0-.6.1l-4 4.5-1.5-.7v-.2c0-.9-.7-1.6-1.6-1.6zm.5 1.6a.5.5 0 1 1-1 0 .5.5 0 0 1 1 0zm3.2 8.5h5.4v.6c0 .3-.3.5-.6.5h-4.2a.5.5 0 0 1-.6-.5V24zm-10.6.6c0-.3.2-.6.5-.6h9v.6c0 .8.8 1.6 1.7 1.6h4.2c1 0 1.6-.8 1.6-1.6V24h9c.4 0 .6.3.6.6v2c0 .4-.2.6-.5.6H1.6a.5.5 0 0 1-.5-.5v-2.1z" style="fill:var(--color1, #2e2f42)"/>
    </symbol>
    <symbol id="icon-facebook" viewBox="0 0 32 32">
      <path fill="#f4f4fd" d="M21.3 5.3h3v-5C23.6.1 22 0 20 0c-4.2 0-7.1 2.6-7.1 7.5V12H8.2v5.7H13V32h5.7V17.7h4.5l.7-5.7h-5.2V8c0-1.6.4-2.7 2.7-2.7z" style="fill:var(--color4, #f4f4fd)"/>
    </symbol>
    <symbol id="icon-instagram" viewBox="0 0 32 32">
      <path fill="#f4f4fd" d="M32 9.4c-.1-1.7-.4-2.9-.8-3.9s-1-2-1.8-2.8A7.9 7.9 0 0 0 26.5.8c-1-.4-2.1-.6-3.8-.7A109.5 109.5 0 0 0 5.6.8c-1 .4-2 1-2.9 1.9C2 3.5 1.3 4.5 1 5.5.5 6.5.2 7.7.2 9.4a109.5 109.5 0 0 0 .7 17c.4 1.2 1 2.1 1.8 3 .8.7 1.8 1.4 2.9 1.8 1 .4 2.2.6 3.9.7a117.2 117.2 0 0 0 17-.7 8.2 8.2 0 0 0 4.7-4.7c.4-1 .7-2.2.8-3.9V9.4zm-3 13c0 1.6-.2 2.5-.5 3a5.3 5.3 0 0 1-3 3c-.6.3-1.4.6-3 .6a112.7 112.7 0 0 1-15.9-.5 5 5 0 0 1-1.8-1.2 5 5 0 0 1-1.2-1.9c-.2-.5-.5-1.4-.5-3a112.7 112.7 0 0 1 .5-15.8c.3-.7.7-1.3 1.2-1.9a5 5 0 0 1 1.8-1.1 8 8 0 0 1 3-.6 112.7 112.7 0 0 1 15.9.6 5 5 0 0 1 1.8 1.1 5 5 0 0 1 1.2 1.9c.3.5.5 1.4.6 3a112.7 112.7 0 0 1 0 12.9z" style="fill:var(--color4, #f4f4fd)"/>
      <path fill="#f4f4fd" d="M16 7.8a8.2 8.2 0 1 0 0 16.4 8.2 8.2 0 0 0 0-16.4zm0 13.5a5.3 5.3 0 1 1 0-10.6 5.3 5.3 0 0 1 0 10.6zM26.5 7.5a2 2 0 1 1-3.8 0 2 2 0 0 1 3.8 0z" style="fill:var(--color4, #f4f4fd)"/>
    </symbol>
    <symbol id="icon-linkedin" viewBox="0 0 32 32">
      <path fill="#f4f4fd" d="M32 32V20.3c0-5.8-1.2-10.2-8-10.2a7 7 0 0 0-6.2 3.4h-.1v-2.9h-6.4V32H18V21.4c0-2.8.6-5.5 4-5.5s3.5 3.2 3.5 5.7V32H32zM.5 10.6h6.7V32H.5V10.6zM3.8 0C1.8 0 0 1.7 0 3.8s1.7 4 3.8 4a4 4 0 0 0 3.9-4C7.7 1.8 6 0 3.8 0z" style="fill:var(--color4, #f4f4fd)"/>
    </symbol>
    <symbol id="icon-twitter" viewBox="0 0 32 32">
      <path fill="#f4f4fd" d="M32 6c-1.2.6-2.5 1-3.8 1.1 1.4-.8 2.4-2 3-3.6-1.4.7-2.8 1.3-4.3 1.6a6.6 6.6 0 0 0-11.2 6A18.6 18.6 0 0 1 2.2 4.2a6.6 6.6 0 0 0 2 8.8c-1 0-2-.4-3-.8 0 3.2 2.4 5.9 5.3 6.5a6.5 6.5 0 0 1-3 0 6.6 6.6 0 0 0 6.2 4.6A13.2 13.2 0 0 1 0 26.1 18.5 18.5 0 0 0 28.7 9.5c1.3-1 2.4-2 3.3-3.4z" style="fill:var(--color4, #f4f4fd)"/>
    </symbol>
    <symbol id="icon-group-6" viewBox="0 0 67 32">
      <path d="M33.8 15.2c-.3-.4-.5-.9-.4-1.4v-2c0-.7.1-1.1.4-1.5s.8-.4 1.5-.4c.6 0 1 0 1.4.4.3.3.4.8.4 1.2v.5h-1.2v-1l-.2-.3a.7.7 0 0 0-.4 0h-.5l-.2.4v3l.1.7.3.1h.7l.2-.4v-1h1.2v.5c0 .5-.1 1-.4 1.3-.3.3-.8.5-1.4.5s-1.2-.2-1.5-.6zm4.9.1c-.3-.4-.5-.8-.5-1.4v-2.2c0-.6.2-1 .5-1.4s.8-.4 1.4-.4c.7 0 1.2.1 1.5.4.3.3.5.8.5 1.4V14c0 .6-.2 1-.5 1.4s-.8.5-1.5.5-1.1-.2-1.4-.5zm2-.5.1-.7v-2.6l-.1-.7-.2-.1h-.7l-.2.1c-.1.2-.2.5-.1.7V14l.1.7.2.1h.6l.3-.1zm2.8-4.8h1.2l1 3.9 1-4h1.2l.1 5.8h-1v-4l-1 4h-.7l-1-4v4h-1l.2-5.8zm5.9 0h2c1.1 0 1.7.5 1.7 1.6 0 1-.6 1.5-1.8 1.5h-.7v2.6h-1.2V9.9zm1.7 2.4a1 1 0 0 0 .7-.2c0-.2.2-.4.1-.7V11l-.1-.1-.2-.2h-1v1.7h.5zm3.7-2.4h1.3l1.3 5.7h-1l-.3-1.4h-1.2l-.3 1.4h-1.1l1.3-5.8zm1.1 3.7-.4-2.4-.5 2.4h1zm2.6-3.7h.9l1.6 3.2V9.9h1v5.8h-.8l-1.6-3.5v3.5h-1V9.9zm5.9 3.5L63 9.9h1.1l.9 2.3.7-2.3h1.1l-1.3 3.6v2.2h-1.2v-2.2zm-28.7 4.7v.3h-1v2.3h-.4v-2.3h-1v-.3h2.4zm3.1 2.6h-.5L38 20h-1.4l-.2.6v.1h-.5l1.2-2.6h.4l1.3 2.6zm-2-1h1.1l-.5-1v-.3l-.1.2-.5 1.1zm4.1.8h.2a1.4 1.4 0 0 0 .3-.1h.2v-.7h-.5v-.2h.9v1a2 2 0 0 1-.8.2h-1l-.5-.3a1.3 1.3 0 0 1-.4-1l.1-.5c0-.2.2-.3.3-.5l.5-.2a2 2 0 0 1 1-.1 1.7 1.7 0 0 1 .7.3v.2h-.4l-.2-.1a1.5 1.5 0 0 0-1 0 1 1 0 0 0-.6.5v.9l.2.3.4.2h.5zm3.8-.1H46v.3h-1.7v-2.6h.4v2.3zm2.7.3H47v-2.6h.4v2.6zm1.6-2.6 1.8 2V18h.3v2.7h-.3l-1.8-2V21h-.3v-2.7h.2zm5.2 0v.3h-1.5v.8H54v.3h-1.2v1h1.5v.2h-1.9v-2.6h1.9zM10.8 1.9l18.4 4.5v15.8l-18.4-4.5V1.9zM9.6.5v18l20.8 5V5.6L9.6.6z"/>
      <path d="M20.7 31.8 0 26.8v-18L20.7 14v18z"/>
      <path d="M10 1.7 28 6l-7.7 6.7-18-4.4L10 1.7zM9.6.5 0 9l20.7 5 9.7-8.3L9.6.6zM22 30.8l8.4-7.3-8.5-2v9.3z"/>
    </symbol>
    <symbol id="icon-group-5" viewBox="0 0 44 32">
      <path d="M3.3 26.7c.2.2.3.4.3.7l-.1.4-.3.4c-.3.2-.8.4-1.2.3H0v-4.2h2c.4 0 .8 0 1.1.2l.3.4c.1.1 0 .3 0 .4.1.3 0 .5-.1.7a1 1 0 0 1-.7.3c.3 0 .6.2.7.4zM1 26h.9c.2 0 .4 0 .5-.2l.2-.2v-.4s0-.2-.2-.2a.9.9 0 0 0-.5-.2h-1V26zm1.5 1.6.2-.2V27l-.2-.2a1 1 0 0 0-.6-.1H1v1.1h1l.5-.1zm4.9.9L6.3 27h-.4v1.6h-1v-4.2h1.8c.5 0 1 0 1.3.3.2.3.4.6.4.9s0 .6-.3.9c-.2.2-.5.4-.8.4l1.1 1.7h-1zM6 26.3h.8c.5 0 .8-.2.8-.7v-.2l-.2-.2a1 1 0 0 0-.6-.2H6v1.3zm6.6 1.4h-1.9l-.3.8h-1l1.7-4.2h1.1l1.7 4.2h-1l-.3-.8zm-.2-.7-.7-1.8L11 27h1.4zm6.7 1.5h-.9l-2.1-2.9v3h-1v-4.3h1l2.1 2.9v-3h1v4.3zm5.5-1a2 2 0 0 1-1 .8 3 3 0 0 1-1.2.2h-1.7v-4.2h1.7c.4 0 .9 0 1.3.2s.7.4.9.8a2.3 2.3 0 0 1 0 2.2zm-1.1 0c.2-.4.4-.7.4-1.1s-.2-.7-.4-1a2 2 0 0 0-1.2-.4h-.7v2.8h.7a2 2 0 0 0 1.2-.4zM13.2.5s12.2 4.2 12 10.2v10.2s-12.2-4.2-12-10.2V.5zm22.8 18a18 18 0 0 1 7.8-2.6v-3.2c-3.2 1.1-6 3.2-7.7 5.8z"/>
      <path d="M34.7 19.4a16 16 0 0 1 9.1-7.3V2.9s-17.4 5.9-17 14.5v14.4l2-.7v-1.4c.4-4 2.5-7.7 5.9-10.3z"/>
      <path d="m33 24.8.6-3a13.3 13.3 0 0 0-3.7 8.8l3.4-1.6c-.3-1.4-.4-2.8-.3-4.2zm.7.1a13 13 0 0 0 .2 3.8C38.7 26 44 22 44 17.4v-.5a16 16 0 0 0-9.1 3.9 13 13 0 0 0-1 4z"/>
    </symbol>
    <symbol id="icon-group-3" viewBox="0 0 66 32">
      <path d="M10.2 9.8c-1.9 0-3.4 1.3-3.4 3s1.5 3 3.4 3 3.4-1.3 3.4-3-1.5-3-3.4-3zm24.8-1c0-2.3-1-4.6-2.8-6.2S28 0 25.3 0c-2.6 0-5 1-6.9 2.6s-2.8 3.9-2.8 6.2v12.9S35 19.7 35 8.8zM0 25.9c0 1.6.7 3.2 2 4.3S5 32 6.8 32c1.8 0 3.5-.7 4.8-1.8s2-2.7 2-4.3v-9S0 18.3 0 26zm6.8 1.6c-.4 0-.7-.1-1-.3l-.7-.7c-.2-.3-.1-.6 0-1l.4-.8c.2-.3.6-.3 1-.4l1 .1c.4.1.6.3.8.6a1.5 1.5 0 0 1-.3 2l-.5.4h-.7zm12.4-2.9v3.3h-.7v-3.3h.7zm1.3 1.4v.6H19V26h1.5zm.2-1.4v.5H19v-.5h1.7zm3.1 1.6v.8c0 .2-.2.4-.4.5 0 .2-.2.3-.4.4h-1.2l-.4-.4-.3-.5a2 2 0 0 1-.1-.7v-.8l.4-.5c.1-.2.3-.3.4-.3l.6-.1h.6l.4.4c.2.1.3.3.3.5l.1.7zm-.7.1v-.6s0-.2-.2-.3l-.2-.2-.3-.1h-.3l-.2.3-.2.3v1.1l.2.3.2.3h.6l.2-.3.2-.3v-.5zm3 .8v-.2l-.2-.1-.2-.2h-.3l-.4-.2-.4-.3a1 1 0 0 1-.2-.2l-.1-.4V25l.3-.3.4-.2a1.8 1.8 0 0 1 1.2 0l.4.4.1.6h-.6l-.1-.3-.2-.2h-.6l-.2.2v.4l.1.2h.2l.3.2c.2 0 .4 0 .5.2l.4.2.2.3v.7l-.3.3-.4.2h-1l-.4-.2-.3-.3-.1-.5h.7v.2l.1.2.3.1h.5a.4.4 0 0 0 .3-.3zm2.6-2.5v3.3H28v-3.3h.7zm1 0v.5H27v-.5h2.7zm2.6 2.8v.5h-1.7v-.5h1.7zm-1.5-2.8v3.3h-.7v-3.3h.7zM32 26v.5h-1.5V26H32zm.2-1.4v.5h-1.7v-.5h1.7zm.4 0H34l.6.1c.2 0 .4.2.5.3l.1.6v.5l-.3.3-.4.2h-1.3v-.4h.8l.3-.1.2-.2v-.5l-.2-.2h-.9v2.7h-.7v-3.3zm1.9 3.3-.8-1.5h.8l.7 1.5h-.7zm3.6-1.2h-.8v-.5h1.1l.2-.2v-.6l-.2-.2h-.8v2.7h-.7v-3.3h1.3l.7.1a1 1 0 0 1 .6 1c0 .2 0 .4-.2.5l-.4.4-.7.1zm4 .7v.5h-1.8v-.5h1.8zm-1.6-2.8v3.3H40v-3.3h.7zM42 26v.5h-1.5V26H42zm.3-1.4v.5h-1.8v-.5h1.8zm1.9 0v3.3h-.7v-3.3h.7zm1 0v.5h-2.7v-.5h2.7zm2.6 2.8v.5H46v-.5h1.7zm-1.5-2.8v3.3h-.7v-3.3h.7zm1.3 1.4v.5H46V26h1.5zm.2-1.4v.5H46v-.5h1.7zm.4 0h1.3l.6.1c.2 0 .4.2.5.3l.1.6v.5l-.3.3-.4.2h-1.3v-.4h.8l.3-.1.2-.2v-.5l-.2-.2h-1v2.7h-.7v-3.3zm2 3.3-.9-1.5h.8l.7 1.5H50zm2.8-.8v-.2l-.1-.1-.2-.2h-.4l-.4-.2-.4-.3a1 1 0 0 1-.2-.2V25l.3-.3.3-.2a1.8 1.8 0 0 1 1.2 0l.4.4.2.6H53v-.3l-.3-.2H52l-.1.2-.1.2v.1l.2.2h.2l.3.2c.1 0 .3 0 .4.2l.4.2.2.3v.7l-.3.3-.3.2h-1l-.5-.2-.3-.3v-.5h.6v.2l.2.2.2.1h.5a.4.4 0 0 0 .3-.3z"/>
    </symbol>
    <symbol id="icon-group-2" viewBox="0 0 34 32">
      <path d="m5.3 31.4.3.2-.5.3-.7.1-.7-.1c-.2 0-.3-.2-.5-.3l-.3-.4A1.5 1.5 0 0 1 3 30l.4-.4c.1-.2.3-.3.5-.3a2 2 0 0 1 1.3 0l.4.2-.1.2h-.2l-.1-.1a1.2 1.2 0 0 0-.4-.1 1.6 1.6 0 0 0-.7 0l-.4.3a1 1 0 0 0-.2.3l-.1.5v.4a1 1 0 0 0 .7.6h.7a1 1 0 0 0 .5-.2h.1zm5-.8-.1.6-.3.4-.6.3H8c-.2 0-.3-.2-.5-.3l-.3-.5c-.2-.3-.2-.7 0-1.1 0-.2.2-.3.3-.4.2-.2.3-.3.5-.3.5-.2 1-.2 1.3 0 .2 0 .4.1.5.3a1.3 1.3 0 0 1 .5 1zm-.5 0V30a1 1 0 0 0-.6-.5h-1a1 1 0 0 0-.4.2 1 1 0 0 0-.2.3v1a1 1 0 0 0 .6.5h1l.3-.2.3-.4v-.4zm3.9.4v.2-.1l.1-.1 1.1-1.7.1-.1h.4V32H15v-2.2l-1 1.7h-.5l-1.1-1.8V32H12v-2.7h.5l1.1 1.8zm4.1 0v1h-.4v-2.8h1.5l.4.2.2.3v.3a.8.8 0 0 1-.3.7l-.3.2h-1.1zm0-.4h.9l.2-.1.2-.2v-.5l-.2-.2a1 1 0 0 0-.5-.1h-.6v1.1zm5.8 1.4h-.4v-.1l-.4-.7h-1.4l-.3.7h-.5l1.3-2.7h.4l1.3 2.8zm-2.1-1h1.2l-.5-1.2-.1-.3v.2l-.1.1-.5 1.1zm4-1.8 2 2.1v-2.1h.3V32h-.2l-.2-.1-1.8-2v2h-.4v-2.7h.2zm5.5 1.7v1h-.4v-1l-1.2-1.7h.5l.8 1.2v.2l.1-.1.1-.1.7-1.1h.1l.1-.1h.4L31 30.9zm-17.5-6.4h.5c3-1 5.4-2.9 7.1-5.2s2.6-5 2.5-7.7L20.4 9c.7 3 .4 5.9-.9 8.7s-3.3 5.1-6 7z"/>
      <path d="M12.3 24.4h.1c3-1.8 5.2-4.3 6.4-7.2s1.5-6 .6-9L15 4.3a16.5 16.5 0 0 1-2.6 20zm15.5-9.5a14 14 0 0 1-5.4 7.6c-.8.6-1.6 1.2-2.5 1.6 2.2-.5 4.2-1.5 6-2.9s3-3 3.8-4.8L27.8 15z"/>
      <path d="m27 14.4-2.6-2.2c0 2.5-.9 5-2.4 7.2s-3.8 4-6.5 5.2h1.8c2.5-1 4.7-2.3 6.4-4s2.9-4 3.4-6.2zM12.7 2.7 9.6 0c-2.8 1-5.3 2.6-7 4.7S0 9.3 0 11.9c0 2.8 1.1 5.6 3.2 7.8s5 3.9 8.1 4.5c3-3 4.6-6.7 4.9-10.5s-1-7.8-3.5-11zM34.3 14c0-3.4-1.5-6.6-4.3-9s-6.6-3.7-10.6-3.7a17 17 0 0 0-5.3.8l19.2 16.5c.7-1.5 1-3 1-4.6z"/>
    </symbol>
    <symbol id="icon-group-1" viewBox="0 0 25 32">
      <path d="M10.5 1.8h-.7a14.2 14.2 0 0 0-.8 0 16 16 0 0 0-6.5 1.7h-.3v13.7L3 17a23.3 23.3 0 0 1 6.7-1.2v1.8H9A20 20 0 0 0 .5 20V2.5A18.3 18.3 0 0 1 9.8 0h.2a18.1 18.1 0 0 1 3.2.4v1.8a14 14 0 0 0-2.2-.4h-.5zm3.1 1.8h1.2a19.4 19.4 0 0 0 9.3-2.3v17.1a18.3 18.3 0 0 1-12.7 2.1V3.3a14.3 14.3 0 0 0 2.2.3zm8.8.1-.7.3-1.7.5a21.1 21.1 0 0 1-6.3.6h-.5v14h.4a14.2 14.2 0 0 0 5.3-.5c1.1-.2 2.2-.6 3.2-1.1l.3-.1V3.7zM1.7 26a1 1 0 0 0-.7-.3 1 1 0 0 0-.4 0 1 1 0 0 0-.5.6v3.2l.2.3.4.2h.7a1 1 0 0 0 .5-.6v-.6h-.5v.4l-.2.1-.2.1a.3.3 0 0 1-.3-.1v-2.9h.1c.1 0 .1-.1.2 0 0-.1 0 0 .1 0h.2v.6H2v-.3a1 1 0 0 0-.3-.7zm3.6 0A1 1 0 0 0 4 26a1 1 0 0 0-.2.3l-.1.4v2.7l.3.3.4.2a1 1 0 0 0 .7 0c.1 0 .2 0 .3-.2l.2-.3.1-.4v-2.7a1 1 0 0 0-.3-.4zM5 29a.4.4 0 0 1-.1.3.4.4 0 0 1-.6 0 .4.4 0 0 1 0-.3v-2.3a.4.4 0 0 1 0-.3.4.4 0 0 1 .6 0 .4.4 0 0 1 .1.3V29zm5 1v-4.3h-.5L8.7 28l-.8-2.3h-.6V30H8v-2.6l.6 1.8h.3l.6-1.8V30h.6zm3.5-4-.3-.2h-1.4V30h.6v-1.7h.3l.6-.1.3-.3.2-.4a3 3 0 0 0 0-1l-.3-.5zm-.3 1.3v.2l-.2.2h-.6v-1.4h.6l.2.2v.8zm3.2-1.6h-.5l-1 4.3h.6l.2-1h.8l.2 1h.6l-1-4.3zm-.6 2.8.3-1.6.3 1.6h-.6zm4.5-.2-1-2.6h-.5V30h.6v-2.6l1 2.6h.5v-4.3h-.6v2.6zm3.7-2.6-.5 1.7-.5-1.7h-.7l.9 2.5V30h.6v-1.8l.8-2.5H24zM0 31.2h.3v.8h.2v-.8h.3V31H0v.2zm2.4-.2-.3 1h.2v-.2h.4l.1.2H3l-.3-1h-.3zm0 .6.2-.4v.4h-.2zm2.5 0H5v.1l-.2.1h-.2l-.1-.3c0-.2 0-.3.3-.3H5c.1 0 0 0 0 .1h.3c0-.2-.2-.3-.4-.3l-.4.1-.1.2c-.1 0 0 .1 0 .2l.1.4a.5.5 0 0 0 .4.1c.1 0 .3 0 .4-.2v-.3h-.4v.1zm2.4-.6h-.2v1h.7v-.2h-.5V31zm2.1 0h-.2v1h.2v-1zm2.1.7L11 31h-.2v1h.2v-.7l.4.7h.2v-1h-.2v.7zm1.8-.2h.5v-.1h-.5v-.2h.5V31h-.7v1h.8v-.2h-.6v-.3zm4.5-.1h-.4V31h-.2v1h.2v-.4h.4v.4h.2v-1h-.2v.4zm1.8.1h.5v-.1h-.5v-.2h.6V31h-.7v1h.7v-.2h-.6v-.3zm2.6 0c.1 0 .2 0 .2-.2a.2.2 0 0 0 0-.2L22 31h-.4v1h.2v-.4h.2l.3.4h.2l-.1-.2-.2-.3zm-.2 0h-.2v-.3h.4v.1l-.2.1zm2 0h.6v-.1H24v-.2h.5V31h-.7v1h.7v-.2H24v-.3z"/>
    </symbol>
    <symbol id="icon-group" viewBox="0 0 28 32">
      <path d="m4 0 5 4.5H0v22h23.1v-8.3l4.8 4.5V0H4.1zm19 17.6L9.3 4.7H23v13zm-4.3 5.8h-15V8.5h1v13.9h14v1zm-12 7.3L6 29.5h-.5l.9 1.6v.8h.4v-.8l.8-1.6h-.5l-.5 1.2zm2-1.2h.1l1 2.4h-.5l-.2-.5h-1l-.1.5h-.4l.9-2.4h.2zM8.3 31H9l-.3-1-.4 1zm3-.4h-.1l-.2-.3v-.5l.3-.2.3-.1h.3l.2.3.1.2v.2l-.2.2-.1.2h-.2l.5.6a1 1 0 0 0 0-.4h.4v.3a1 1 0 0 1-.2.4l.4.4h-.5l-.1-.1-.3.1a1.1 1.1 0 0 1-.8 0 .7.7 0 0 1-.2-.3l-.1-.3V31l.2-.2.2-.2zm.1.3-.2.2a.4.4 0 0 0 0 .4l.2.1h.2a.6.6 0 0 0 .4 0l-.6-.7zm.1-.5h.2l.1-.2V30c0-.1-.1 0-.2 0a.2.2 0 0 0-.2 0v.3a1 1 0 0 0 .1.2zm4.3.8h-.5v.2l-.2.2h-.5l-.2-.2-.1-.2V30l.3-.1h.5l.2.2v.2h.5l-.2-.4-.3-.3-.5-.1a1 1 0 0 0-.4 0l-.3.3-.2.4v1.1l.2.4.3.2h.9l.3-.3.1-.4zm2.3-.4v-.1l-.1-.5a1 1 0 0 0-.2-.4l-.3-.2a1 1 0 0 0-.4-.1 1 1 0 0 0-.5 0l-.3.3-.2.4v1.1l.2.4.4.2h.8l.3-.2.2-.4v-.5zm-.5-.1v.5l-.1.2a.5.5 0 0 1-.4.2h-.3l-.2-.2v-.2l-.1-.4v-.5l.1-.3a.5.5 0 0 1 .5-.2h.2l.2.2.1.3v.4z"/>
    </symbol>
    <symbol id="icon-modal-close" viewBox="0 0 32 32">
      <path fill="#e7e9fc" style="fill: var(--color1, #e7e9fc)" d="M32 16c0 8.837-7.163 16-16 16s-16-7.163-16-16c0-8.837 7.163-16 16-16s16 7.163 16 16z"></path>
      <path fill="none" stroke="#000" style="stroke: var(--color2, #000)" stroke-linejoin="miter" stroke-linecap="butt" stroke-miterlimit="4" stroke-width="1.3333" d="M31.333 16c0 8.468-6.865 15.333-15.333 15.333s-15.333-6.865-15.333-15.333c0-8.468 6.865-15.333 15.333-15.333s15.333 6.865 15.333 15.333z"></path>
      <path fill="#2e2f42" style="fill: var(--color3, #2e2f42)" d="M21.333 11.733l-1.067-1.067-4.267 4.267-4.267-4.267-1.067 1.067 4.267 4.267-4.267 4.267 1.067 1.067 4.267-4.267 4.267 4.267 1.067-1.067-4.267-4.267 4.267-4.267z"></path>
    </symbol>
    <symbol id="icon-antenna" viewBox="0 0 32 32">
      <path fill="#2e2f42" d="m30.8 22.1-8.5-8.5 1-4.6.7.1a2.2 2.2 0 1 0-2-1.4l-5 .6L9 .2a.5.5 0 0 0-.4-.2c-.1 0-.3 0-.4.2L6.7 1.7c-.2.2-.2.5 0 .7l.8.8A15 15 0 0 0 10.2 21v6.7H3.6A2.7 2.7 0 0 0 1 30.4v1c0 .4.2.6.5.6H26c.3 0 .6-.2.6-.5v-1.1c0-1.5-1.2-2.7-2.7-2.7h-6.4V25a15 15 0 0 0 10-1.5l1 .9.3.1.4-.1 1.5-1.5c.2-.3.2-.6 0-.8zM23.3 6.2a1 1 0 1 1 .7 1.9 1 1 0 0 1-.7-1.9zM22 9.7l-.6 3-1.1-1.2L22 9.7zm-.6-.9-1.9 2L18 9.2l3.4-.5zm2.6 20c.9 0 1.6.7 1.6 1.6v.5H2.1v-.5c0-.9.8-1.6 1.6-1.6H24zm-7.5-2.1v1h-5.3v-1h5.3zm-5.3-1.1v-4c0-1.3 1.2-2.4 2.7-2.4s2.6 1 2.6 2.3v4.1h-5.3zm6.4-1.7v-2.4c0-1.8-1.7-3.4-3.7-3.4-1.4 0-2.6.7-3.3 1.8A14 14 0 0 1 8.3 4L27 22.7a13.8 13.8 0 0 1-9.3 1.2zm11.3-.7L7.9 2l.7-.7 8 8 13 13.2-.7.7z" style="fill:var(--color1, #2e2f42)"/>
      <path fill="#4d5ae5" d="M13.9 20.3a1.6 1.6 0 1 0 0 3.2 1.6 1.6 0 1 0 0-3.2zm.3 2-.3.1a.5.5 0 0 1 0-1 .5.5 0 0 1 .3.8z" style="fill:var(--color2, #4d5ae5)"/>
    </symbol>
    <symbol id="icon-astronaut" viewBox="0 0 32 32">
      <path fill="#4d5ae5" d="M32 4.5c0-.2-.3-.3-.5-.3l-1.9-.3-.8-1.7c-.2-.4-.8-.4-1 0L27 3.9l-2 .3a.5.5 0 0 0-.2.9L26 6.4l-.3 2c0 .1 0 .3.2.4.2.2.4.2.6 0l1.7-.8 1.7.9a.5.5 0 0 0 .8-.6l-.3-1.9 1.3-1.3c.2-.2.2-.4.2-.6zM29.5 6c-.1 0-.2.2-.1.4l.1 1.1-1-.5a.5.5 0 0 0-.4 0l-1 .5.1-1-.1-.5-.8-.8 1.1-.2c.2 0 .3-.1.4-.3l.5-1 .5 1c0 .2.2.3.4.3l1.1.2-.8.8zm-3.4 14.5h-1v1h1v-1zm0 2.2h-1v1h1v-1zm1.1-1.1h-1v1h1v-1zm-2.2 0h-1v1h1v-1zm-2.6 4.8h-1v1h1v-1zm0 2.1h-1v1h1v-1zm1.1-1h-1.1v1h1v-1zm-2.2 0h-1v1h1v-1zM16 24.3h-1v1h1v-1zm0 2.1h-1v1h1v-1zm1-1.1h-1v1h1v-1zm-2 0h-1.1v1h1v-1zM5.9 6.1H4.8v1h1v-1zm0 2.2H4.8v1h1v-1zM7 7.2H5.8v1h1v-1zm-2.2 0h-1v1h1v-1z" style="fill:var(--color2, #4d5ae5)"/>
      <path fill="#2e2f42" d="M24.7 14.2c-.3-.4-.7-.7-1.2-.7-.5-.1-1 0-1.3.3l-1.3 1-1.9 1.4-1.3-.6a7 7 0 0 0-2.9-13.2A7 7 0 0 0 9 13H6l-3.2 1.6-2 1a1.8 1.8 0 0 0 1 3.2c.3 0 .6 0 .8-.2L4 18l2.3-1.2h1.3l-5.4 5.4-1.3 1.3a1.7 1.7 0 0 0 0 2.4 1.7 1.7 0 0 0 2.3 0l1.3-1.3 1.8-1.3.9.9-1.8 1.7-1.3 1.4a1.7 1.7 0 0 0 0 2.3 1.7 1.7 0 0 0 2.3 0l3.5-3.4 1-1 5.2-5.7 3.5.5h.2l.1-.1 3.3-2.1 1.3-1.3c.7-.6.8-1.6.2-2.3zM2.1 17.8h-.5a.7.7 0 0 1-.2-1.2l1.3-.7.4 1.3-1 .6zm3.5-1.9-1.5.8-.5-1.2 2-1v1.4zm15.1-6.6c0 1-.2 1.8-.6 2.6l-4.2-2c0-.5-.3-1-.7-1.3l1.4-4.9a6 6 0 0 1 4.1 5.6zM9 9.3a5.9 5.9 0 0 1 6.7-5.8L14 8.3a1.9 1.9 0 1 0 0 3.7c.7 0 1.3-.4 1.6-1l3.9 1.8A5.9 5.9 0 0 1 8.9 9.3zm6 .8a.8.8 0 0 1-1.6 0 .8.8 0 0 1 1.6 0zm-12.4 15c-.3.3-.7.3-.9 0a.6.6 0 0 1 0-.8l1-1 .8.9-1 1zM5.7 29c-.3.2-.6.2-.9 0a.6.6 0 0 1 0-.9l1-1 .8 1-1 .9zm3.5-3.5-1.8 1.8-.9-.9 1.8-1.7.1-.2V24h-.1l-1.6-1.7h-.1l-.1-.1H6l-1.8 1.4-.9-1 2.4-2.3 4.4 4.3-1 1zm6.8-7a.6.6 0 0 0-.4 0v.1l-4.8 5.2-4.3-4.2 2.8-2.9a.5.5 0 0 0-.4-.9H6.7v-1.6H10a7 7 0 0 0 6.2 2l.1.1 2.5 1 .1.7.2 1-3-.5zm4 .2-.3-1.6 1.5-1 .9 1.2-2 1.4zm3.8-2.9-.9.8-.9-1.2.8-.6c.2-.2.4-.2.6-.2a.7.7 0 0 1 .4 1.2z" style="fill:var(--color1, #2e2f42)"/>
      <path fill="#2e2f42" d="m13.6 18.5-2.1-2a.5.5 0 0 0-.8 0l-2.1 2a.5.5 0 0 0 0 .8l2.1 2.1a.5.5 0 0 0 .8 0l2.1-2.1a.5.5 0 0 0 0-.8zm-2.5 1.8-1.4-1.4 1.4-1.4 1.4 1.4-1.4 1.4zM17.2 5l-.3 1.1s1.7.5 1.7 2.2h1.1c0-2-1.7-3-2.5-3.2zm2.5 4.3h-1v1h1v-1z" style="fill:var(--color1, #2e2f42)"/>
    </symbol>
    <symbol id="icon-clock" viewBox="0 0 32 32">
      <path fill="#2e2f42" d="M31.3 15.3a15.3 15.3 0 1 0-19.8 14.6h.4l.2-.4 4-12.3a2 2 0 1 0-1-3.6l-5-5.1a.6.6 0 0 0-1 .9l5.2 5a2 2 0 0 0 .5 2.4l-3.7 11.7a14 14 0 1 1 10.6-.4l-.4-1.9a.6.6 0 0 0-1-.3l-3.9 3.4a.6.6 0 0 0 .2 1.1l5 1.6a.6.6 0 0 0 .8-.8l-.4-1.8c5.6-2.4 9.3-8 9.3-14.1zM16 14.7a.6.6 0 1 1 0 1.2.6.6 0 0 1 0-1.2zm2 14.8 2.3-2 .6 3-2.8-1z" style="fill:var(--color1, #2e2f42)"/>
      <path fill="#4d5ae5" d="M15.4 3.2v1.3a.6.6 0 1 0 1.2 0V3.2a.6.6 0 0 0-1.2 0zM3.9 14.7a.6.6 0 0 0 0 1.2h1.3a.6.6 0 1 0 0-1.2H3.9zM28.1 16a.6.6 0 1 0 0-1.3h-1.3a.6.6 0 0 0 0 1.2h1.3z" style="fill:var(--color2, #4d5ae5)"/>
    </symbol>
    <symbol id="icon-Customers-Logo1" viewBox="0 0 59 32">
      <path d="m21.7 4 4 3.8h-7.4v18.5h19.4v-7l4 3.8V4h-20zm15.8 14.8L26.2 8h11.3v10.8zM34 23.6H21.4V11.2h.9v11.6H34v.8zm-10 6.1-.5-1H23l.7 1.4v.7h.4v-.7l.6-1.3h-.3l-.5 1zm1.7-1h.1l.8 2.1H26l-.2-.5h-.7l-.2.5h-.4l.8-2h.2zm-.4 1.4h.6l-.3-.9-.3.9zm2.5-.4-.2-.2V29l.2-.2h.6a.4.4 0 0 1 .1.7l-.1.1-.2.1.4.5.1-.4h.3v.3l-.1.3.2.4h-.4v-.1h-.3a1 1 0 0 1-.7 0 .6.6 0 0 1-.2-.1V30l.1-.1.2-.2zm.2.2-.2.2v.4l.1.1h.2a.5.5 0 0 0 .3 0L28 30zm0-.3.2-.1.1-.1c.1 0 0-.1 0-.2v-.1c0-.1-.1 0-.2 0a.2.2 0 0 0-.2 0v.2l.1.2zm3.6.5h-.3l-.1.3-.1.1h-.5l-.1-.1-.1-.2v-1l.2-.1c0-.1.1 0 .2 0h.3l.1.1v.2h.4l-.1-.3-.3-.3h-.7l-.3.2-.1.3-.1.4v.6l.2.3a.7.7 0 0 0 .6.2h.4l.3-.3.1-.3zm2-.2v-.2l-.1-.4-.2-.3-.3-.2h-.6l-.3.2-.2.3v1c0 .2.1.2.2.3a.8.8 0 0 0 .6.2h.3l.3-.2.2-.3v-.4zm-.4-.2v.5l-.1.2-.2.1c0 .1-.1 0-.2 0h-.2l-.2-.1v-1.2a.4.4 0 0 1 .4-.2h.2l.2.2v.5z" style="fill:var(--color3, #8e8f99)"/>
    </symbol>
    <symbol id="icon-Customers-Logo2" viewBox="0 0 59 32">
      <path d="M28.6 3.4h-.7a14.5 14.5 0 0 0-.7 0c-2 .1-4.1.6-6 1.5l-.3.1v12.7l.6-.2a22.5 22.5 0 0 1 6.3-1V18H27a18.5 18.5 0 0 0-7.8 2.2V4a17 17 0 0 1 8.6-2.4h.3a15.7 15.7 0 0 1 3 .4v1.6a13 13 0 0 0-2.1-.3h-.5zm3 1.7h1A18 18 0 0 0 41.3 3v16a17 17 0 0 1-11.8 1.9v-16a13.3 13.3 0 0 0 2 .3zm8 0-.6.3-1.6.5a19.6 19.6 0 0 1-5.8.5H31v13h.4l1.1.1a15.3 15.3 0 0 0 6.8-1.5l.2-.2V5.2zM20.4 25.8a.9.9 0 0 0-.6-.2 1 1 0 0 0-.7.2l-.2.3v3l.3.3.3.1h.6a1 1 0 0 0 .6-.8v-.3H20v.4l-.1.1-.1.1h-.4v-2.8a.3.3 0 0 1 .3-.2h.1l.1.2.1.3v.1h.6v-.2a1 1 0 0 0-.3-.7zm3.4 0a1 1 0 0 0-1-.2 1 1 0 0 0-.5.5l-.1.4V29l.3.3.3.2a1 1 0 0 0 1-.2.9.9 0 0 0 .3-.7v-2L24 26a1 1 0 0 0-.2-.3zm-.3 2.8a.4.4 0 0 1 0 .3.4.4 0 0 1-.6 0l-.1-.1c-.1-.1 0-.1 0-.2v-2a.4.4 0 0 1 0-.4.4.4 0 0 1 .6 0l.1.2c.1 0 0 0 0 .1v2.1zm4.7.9v-3.9h-.5l-.8 2-.7-2h-.5v4h.5V27l.6 1.7h.3l.5-1.7v2.4h.6zm3.2-3.6-.3-.2c-.1 0-.3-.1-.4 0h-.9v3.8h.6V28h.3l.5-.1.3-.3.1-.3a2.8 2.8 0 0 0 0-1l-.2-.4zm-.3 1.2v.2l-.2.1h-.5v-1.3h.5l.2.2v.8zm2.9-1.5h-.4l-.9 4h.6l.2-.9h.7l.2.8h.6l-1-3.9zm-.5 2.6.3-1.5.3 1.5h-.6zm4.2-.2-.9-2.4h-.5v4h.6v-2.4l.8 2.3h.5v-3.9h-.5V28zm3.4-2.4-.4 1.6-.5-1.6h-.6l.8 2.3v1.6h.5V28l.8-2.3h-.6zm-22.2 5.1h.2v.7h.2v-.7h.3v-.2h-.7v.2zm2.2-.2-.3 1h.2v-.3h.4v.2h.3l-.4-.9h-.2zm0 .6.1-.4.1.4h-.2zm2.3-.1h.2v.2h-.2a.2.2 0 0 1-.2 0v-.3c0-.2 0-.3.2-.3a.2.2 0 0 1 .2.2h.2c0-.2-.2-.3-.4-.3l-.3.1-.1.2v.5a.4.4 0 0 0 .4.1l.4-.1v-.4h-.4v.2zm2.3-.5h-.2v1h.6v-.2h-.4v-.8zm1.9 0h-.2v1h.2v-1zm1.9.6-.4-.6H29v1h.1v-.7l.4.6h.2v-.9h-.2v.6zm1.7-.1h.5-.5v-.2h.5v-.2H31v1h.7v-.2h-.5V31zm4.2-.1H35v-.4h-.2v1h.2V31h.4v.4h.2v-.9h-.2v.4zm1.7.1h.5-.6v-.2h.5v-.2h-.7v1h.7v-.2H37V31zm2.3 0c.2 0 .3-.1.3-.2a.2.2 0 0 0-.1-.2l-.3-.1H39v1h.2V31h.2v.1l.2.3h.3l-.2-.2-.2-.2zm-.1-.1H39v-.2h.4v.1h-.2zm1.9.1h.5-.5v-.2h.5v-.2H41v1h.7v-.2h-.5V31z" style="fill:var(--color3, #8e8f99)"/>
    </symbol>
    <symbol id="icon-Customers-Logo3" viewBox="0 0 59 32">
      <path d="m21 28.1.2.2a1 1 0 0 1-.3.2h-1a1 1 0 0 1-.4-.2 1 1 0 0 1-.2-.3 1 1 0 0 1 0-.9 1 1 0 0 1 .6-.5 1.5 1.5 0 0 1 1 0l.3.1-.1.2h-.4a.9.9 0 0 0-.2-.2 1.2 1.2 0 0 0-.5 0l-.3.2-.2.3v.7a.7.7 0 0 0 .4.4h.7a.8.8 0 0 0 .4-.2zm3.7-.6-.1.5-.2.3a1 1 0 0 1-.4.2h-1l-.3-.2a1 1 0 0 1-.3-.4 1 1 0 0 1 0-.8 1 1 0 0 1 .6-.5h1l.4.2a1 1 0 0 1 .3.7zm-.4 0v-.3a.7.7 0 0 0-.4-.4h-.7l-.3.1-.2.3v.7a.7.7 0 0 0 .5.4h.7l.2-.2.2-.2v-.4zm2.9.4.9-1.3h.3v2h-.3V27l-.8 1.2H27l-.9-1.3v1.6H26v-2h.3l.8 1.3zm3-.1v.7h-.3v-2H31l.3.2.1.2a.6.6 0 0 1 0 .5s0 .2-.2.2l-.2.1h-.8zm0-.2h.6l.2-.2h.1V27l-.1-.2a.7.7 0 0 0-.4 0h-.4v.8zm4.2.9h-.2a.1.1 0 0 1-.1 0l-.2-.5h-1.1l-.2.5a.1.1 0 0 1-.1 0h-.3l1-2h.3l1 2zm-1.5-.7h.9l-.4-.8v-.2h-.1v.2l-.4.8zm2.9-1.3 1.4 1.6v-1.6h.3v2h-.2L35.8 27v1.5h-.3v-2h.2zm4 1.2v.8h-.3v-.8l-.9-1.2h.4l.6.9v.1h.1v-.1l.6-.8h.4l-.9 1.1zM27 23l.4.1c2.2-.8 4-2.1 5.2-3.8s1.9-3.6 1.8-5.6l-2.3-2c.5 2 .2 4.3-.7 6.3S29 21.8 27 23.1z" style="fill:var(--color3, #8e8f99)"/>
      <path d="M26.2 23c2.2-1.3 3.8-3.1 4.7-5.2s1-4.4.5-6.6L28 8.3A12 12 0 0 1 26.2 23zm11.3-7a10.7 10.7 0 0 1-5.8 6.8 10.8 10.8 0 0 0 7.2-5.6L37.5 16z" style="fill:var(--color3, #8e8f99)"/>
      <path d="m37 15.7-2-1.6c0 1.8-.6 3.7-1.8 5.3s-2.8 2.9-4.7 3.8l1.3-.1a11.2 11.2 0 0 0 7.2-7.4zM26.4 7.1l-2.3-2c-2 .7-3.8 2-5 3.5s-2 3.4-2 5.2c0 2.1.9 4.1 2.4 5.8s3.6 2.8 6 3.3c2-2.2 3.3-5 3.5-7.8s-.7-5.6-2.6-8zm15.9 8.3c0-2.5-1.2-4.8-3.2-6.6s-4.8-2.7-7.7-2.7c-1.4 0-2.7.2-4 .6l14.2 12a8 8 0 0 0 .7-3.3z" style="fill:var(--color3, #8e8f99)"/>
    </symbol>
    <symbol id="icon-Customers-Logo4" viewBox="0 0 59 32">
      <path d="M13.8 12.3c-1.4 0-2.5 1-2.5 2.2 0 1.3 1 2.2 2.5 2.2 1.3 0 2.4-1 2.4-2.2 0-1.2-1-2.2-2.4-2.2zm18.2-.7c0-1.7-.8-3.4-2.1-4.6a7.6 7.6 0 0 0-10.1.1 6.3 6.3 0 0 0-2.1 4.5V21S32 19.6 32 11.6zM6.3 24c0 1.3.5 2.4 1.4 3.3s2.2 1.3 3.6 1.3c1.3 0 2.5-.5 3.5-1.3s1.4-2 1.4-3.2v-6.6s-10 1-10 6.6zm5 1.3-.8-.2a1.1 1.1 0 0 1-.5-1.2c0-.3.2-.5.3-.6l.7-.4.8.1c.3.1.4.2.5.4a1 1 0 0 1-.1 1.5 1.3 1.3 0 0 1-1 .4zm9-2.1v2.4h-.5v-2.4h.5zm1 1v.4h-1v-.4h1zm.1-1v.3h-1.2v-.3h1.2zm2.3 1.1v.6l-.3.4-.3.2a1 1 0 0 1-.4.1 1 1 0 0 1-.4 0 1 1 0 0 1-.4-.3 1 1 0 0 1-.2-.4v-1.1l.2-.4.4-.2h.8l.3.2.3.4v.5zm-.5.1V24l-.1-.3-.2-.1h-.4l-.2.1-.1.3v.8l.1.2.2.2h.4l.2-.2v-.2l.1-.4zm2.2.6v-.2h-.1l-.2-.2H25l-.3-.2-.3-.1-.2-.2v-.6l.2-.2.3-.1a1.3 1.3 0 0 1 .8 0c.2 0 .3.2.3.3l.2.4h-.5v-.2l-.2-.1-.2-.1h-.3v.1l-.1.2v.2c0 .1.2 0 .2 0l.2.2.4.1.3.2.1.2v.5l-.2.2-.3.2h-.7a1 1 0 0 1-.3-.2l-.2-.2-.1-.4h.5v.2l.1.1.2.1h.4l.1-.1v-.2zm1.9-1.8v2.4h-.5v-2.4h.5zm.7 0v.3h-2v-.3h2zm2 2v.4h-1.3v-.4H30zm-1.2-2v2.4h-.5v-2.4h.5zm1 1v.3h-1.1v-.4h1.1zm.2-1v.3h-1.3v-.3H30zm.3 0h1.3c.2 0 .3.2.4.3v.7l-.2.3-.3.1h-.9v-.3h.8l.1-.2v-.4l-.1-.1c-.1-.1-.1 0-.2 0h-.4v2h-.5V23zm1.3 2.4-.5-1.1h.5l.6 1h-.6zm2.7-.9h-.7v-.4h.9l.1-.2v-.3l-.1-.2h-.7v2h-.5V23h1c.1 0 .3 0 .4.2a.7.7 0 0 1 .5.7l-.1.4c-.1.2-.2.2-.4.2l-.4.1zm2.9.5v.4h-1.3v-.4h1.3zm-1.2-2v2.4h-.5v-2.4h.5zm1 1v.3h-1.1v-.4h1zm.2-1v.3h-1.3v-.3h1.3zm1.4 0v2.4H38v-2.4h.5zm.7 0v.3h-2v-.3h2zm2 2v.4h-1.4v-.4h1.3zm-1.2-2v2.4h-.5v-2.4h.5zm1 1v.3h-1.2v-.4h1.2zm.1-1v.3H40v-.3h1.3zm.3 0H43c.2 0 .3.2.3.3l.1.4v.3l-.2.3-.3.1H42v-.3h.8l.1-.2v-.4l-.1-.1H42v2h-.5V23zm1.4 2.4-.6-1.1h.6l.5 1H43zM45 25v-.2l-.2-.2h-.3a3 3 0 0 1-.3-.2l-.3-.1-.1-.2-.1-.3v-.3l.3-.2.2-.1a1.3 1.3 0 0 1 .9 0l.3.3.1.4H45v-.2l-.2-.1-.2-.1h-.2l-.2.1v.4l.1.1c.1.1.1 0 .2 0l.2.2.3.1.3.2.1.2.1.2v.3l-.2.2-.3.2h-.7a1 1 0 0 1-.4-.2l-.2-.2v-.4h.4v.2l.2.1.1.1h.4l.2-.1V25z" style="fill:var(--color3, #8e8f99)"/>
    </symbol>
    <symbol id="icon-Customers-Logo5" viewBox="0 0 59 32">
      <path d="m15.3 25.4.2.5v.4l-.3.3c-.3.2-.6.3-1 .3h-1.6v-3.5h1.6c.3 0 .7 0 1 .2l.2.3v.3c0 .2 0 .4-.2.6a1 1 0 0 1-.5.3c.3 0 .5.1.6.3zm-2-.6h1.2l.1-.2c.1 0 0-.2 0-.2a.4.4 0 0 0-.1-.4.7.7 0 0 0-.5 0h-.6v.8zm1.3 1.4V26l.1-.2v-.2l-.1-.1a.8.8 0 0 0-.5-.2h-.8v1h.8l.5-.1zm4.1.7-1-1.4h-.3v1.4h-.8v-3.5h1.5c.4 0 .7 0 1 .3.2.1.4.4.4.7s0 .5-.3.7c-.1.2-.4.3-.7.4l1 1.4h-.8zM17.4 25h.6c.5 0 .7-.2.7-.5v-.2l-.2-.2a.8.8 0 0 0-.5-.2h-.6V25zm5.6 1.2h-1.6l-.3.7h-.8l1.4-3.5h.9l1.4 3.5h-.8l-.3-.7zm-.3-.6-.5-1.5-.6 1.5h1.1zm5.6 1.3h-.8l-1.7-2.4v2.4H25v-3.5h.8l1.7 2.4v-2.4h.8v3.5zm4.4-.9c-.1.3-.4.5-.7.6a2 2 0 0 1-1 .3h-1.4v-3.5h1.3c.4 0 .8 0 1.1.2.3.1.6.3.7.6.2.3.3.6.3 1s-.1.5-.3.8zm-.9 0c.3-.3.4-.6.4-.9s-.1-.6-.4-.8c-.2-.2-.6-.3-1-.3h-.5v2.2h.6c.3 0 .7 0 1-.3zM23.4 3.9s10 3.4 9.9 8.3v8.4s-10-3.4-9.9-8.4V4zm18.8 14.7c1.9-1.2 4-1.9 6.4-2.1v-2.6c-2.7.9-4.9 2.6-6.4 4.7z" style="fill:var(--color3, #8e8f99)"/>
      <path d="M41 19.4c1.6-2.8 4.3-5 7.6-6V5.7s-14.3 4.9-14 11.9v11.9l1.6-.6v-1.2a12 12 0 0 1 4.9-8.4z" style="fill:var(--color3, #8e8f99)"/>
      <path d="M39.7 23.8c0-.8.2-1.6.5-2.4a11 11 0 0 0-3 7.2l2.7-1.3c-.2-1.2-.3-2.3-.2-3.5zm.6.1c-.1 1 0 2 .1 3 4-2 8.3-5.3 8.2-9.2v-.4c-2.8.3-5.4 1.4-7.5 3.2a12 12 0 0 0-.8 3.4z" style="fill:var(--color3, #8e8f99)"/>
    </symbol>
    <symbol id="icon-Customers-Logo6" viewBox="0 0 59 32">
      <path d="M30.6 15.7a2 2 0 0 1-.4-1.2V13c0-.5.2-.9.4-1.2s.6-.4 1.2-.4c.5 0 .9.2 1 .4.3.3.4.6.4 1v.4h-1v-1a.5.5 0 0 0-.4-.1h-.4l-.1.3v3l.2.1h.6l.2-.3v-.8h1v.4c0 .3-.2.7-.4 1-.2.3-.6.4-1.1.4s-1-.1-1.2-.4zm3.9 0c-.2-.3-.4-.6-.4-1.1v-1.8c0-.5.2-.8.4-1s.6-.5 1.2-.5c.5 0 1 .2 1.2.4.2.3.3.6.3 1.1v1.8c0 .5 0 .8-.3 1.1s-.7.4-1.2.4-1-.1-1.2-.4zm1.6-.4c.1-.2.2-.4.1-.5V12l-.3-.1c0-.1-.1 0-.2 0h-.3l-.1.1-.2.5v2.2c0 .2 0 .3.2.5l.1.1h.5l.2-.1zm2.3-3.9h1l.7 3.2.8-3.2h1L42 16h-.7l-.1-3.2-.8 3.2H40l-.8-3.2V16h-.8v-4.6zm4.7 0h1.6c1 0 1.4.4 1.4 1.3 0 .8-.5 1.3-1.5 1.3h-.5v2h-1v-4.6zm1.4 2a.8.8 0 0 0 .5-.2l.2-.5v-.4l-.2-.1V12a1 1 0 0 0-.5-.1H44v1.4h.4zm3-2h1l1 4.6h-.8l-.2-1h-1l-.2 1h-.9l1-4.6zm.9 3-.4-2-.4 2h.8zm2.1-3h.6l1.3 2.6v-2.6h.8V16h-.6l-1.3-2.7V16h-.8v-4.6zm4.6 2.9-1-2.9h.9l.6 1.8.6-1.8h1L56 14.3V16h-1v-1.7zM32 18v.3h-.7v1.9H31v-2h-.8V18H32zm2.6 2.2h-.3V20l-.3-.5h-1.1l-.3.5h-.3l1-2h.3l1 2zm-1.6-.8h.9l-.4-.9v-.2l-.1.1v.1l-.4.9zm3.3.6h.1a1.2 1.2 0 0 0 .3-.1h.2v-.5h-.5V19h.8v.9a1.5 1.5 0 0 1-.7.2h-.8l-.4-.3a1 1 0 0 1-.2-.4L35 19v-.4l.3-.4.4-.2a1.6 1.6 0 0 1 .8 0 1.3 1.3 0 0 1 .6.2v.1h-.4a1 1 0 0 0-.3-.1 1.5 1.5 0 0 0-.6 0l-.3.2-.2.3v.7l.2.2a.8.8 0 0 0 .7.3zm3.1 0h1v.2H39V18h.4v2zm2.1.2h-.3V18h.3v2.2zm1.3-2.2 1.4 1.7V18h.3v2.2h-.2l-1.5-1.7v1.7h-.3V18h.2zm4.2 0v.3h-1.2v.7h1v.2h-1v.7H47v.3h-1.5V18H47zM12.1 5 27 8.5v12.7l-15-3.6V5zm-1-1.1v14.3l16.7 4.1V8L11.2 3.9z" style="fill:var(--color3, #8e8f99)"/>
      <path d="M20.1 29 3.4 25V10.4l16.7 4.1V29z" style="fill:var(--color3, #8e8f99)"/>
      <path d="M11.4 4.8 26 8.4l-6.2 5.3-14.6-3.6 6.2-5.3zm-.2-1-7.8 6.7 16.7 4.1L27.8 8 11.2 3.9zM21 28.2l6.8-5.9-6.8-1.6v7.5z" style="fill:var(--color3, #8e8f99)"/>
    </symbol>
    <symbol id="icon-Vector-1" viewBox="0 0 32 32">
      <path d="M32 3.2l-3.2-3.2-12.8 12.8-12.8-12.8-3.2 3.2 12.8 12.8-12.8 12.8 3.2 3.2 12.8-12.8 12.8 12.8 3.2-3.2-12.8-12.8 12.8-12.8z"></path>
    </symbol>
    <symbol id="icon-person-black" viewBox="0 0 32 32">
    <path d="M16 16c2.946 0 5.333-2.388 5.333-5.333s-2.388-5.333-5.333-5.333v0c-2.946 0-5.333 2.388-5.333 5.333s2.388 5.333 5.333 5.333v0zM16 18.667c-3.556 0-10.667 1.778-10.667 5.333v1.422c0 0.711 0.533 1.244 1.422 1.244h18.489c0.889 0 1.422-0.533 1.422-1.422v-1.244c0-3.556-7.111-5.333-10.667-5.333z"></path>
    </symbol>
    <symbol id="icon-phone-black" viewBox="0 0 24 32">
    <path d="M19.6 18.533l-2.4-0.267c-0.667-0.133-1.2 0-1.6 0.533l-1.733 1.733c-2.667-1.333-5.067-3.6-6.4-6.4l1.733-1.733c0.533-0.4 0.667-1.067 0.667-1.6l-0.533-2.4c0-1.067-0.933-1.733-1.867-1.733h-1.467c-1.2 0-2 0.933-2 2 0.533 8.267 7.067 14.8 15.333 15.333 1.067 0 2-0.8 2-1.867v-1.733c0-0.933-0.667-1.733-1.733-1.867z"></path>
    </symbol>
    <symbol id="icon-email-black" viewBox="0 0 24 32">
    <path d="M20 8h-16c-1.067 0-2 0.933-2 2v12c0 1.067 0.933 2 2 2h16c1.067 0 2-0.933 2-2v-12c0-1.067-0.933-2-2-2zM19.6 12.267l-7.067 4.4c-0.267 0.267-0.8 0.267-1.067 0l-7.067-4.4c-0.211-0.149-0.347-0.392-0.347-0.667 0-0.449 0.364-0.814 0.814-0.814 0.175 0 0.337 0.055 0.469 0.149l-0.003-0.002 6.667 4 6.667-4c0.13-0.092 0.292-0.147 0.467-0.147 0.449 0 0.814 0.364 0.814 0.814 0 0.275-0.136 0.518-0.345 0.665l-0.003 0.002z"></path>
    </symbol>
    <symbol id="icon-icon-send" viewBox="0 0 38 32">
    <path fill="#fff" style="fill: var(--color1, #fff)" d="M38.4 0l-38.4 18.080 12.32 3.68 18.88-14.72-14.4 16v8.96l6.88-6.72 8.8 2.72 5.92-28z"></path>
    </symbol>
    <symbol id="icon-Vector-3-1" viewBox="0 0 40 32">
    <path fill="#f4f4fd" style="fill: var(--color1, #f4f4fd)" d="M33.6 1.2c0.673-0.532 1.534-0.854 2.47-0.854 1.945 0 3.566 1.389 3.926 3.229l0.004 0.025c0 0.8 0 2-0.8 2.8l-20 24.4c-0.695 0.597-1.605 0.96-2.6 0.96s-1.905-0.363-2.605-0.965l0.005 0.004-12.8-12.8c-0.545-0.678-0.875-1.549-0.875-2.497 0-2.209 1.791-4 4-4 0.31 0 0.612 0.035 0.902 0.102l-0.027-0.005 1.2 1.2 10.4 10 16.8-21.6z"></path>
    </symbol>
    <symbol id="icon-Vector-4-1" viewBox="0 0 43 32">
    <path d="M37.333 0h-32c-2.133 0-4 1.867-4 4v24c0 2.133 1.867 4 4 4h32c2.133 0 4-1.867 4-4v-24c0-2.133-1.867-4-4-4zM36.533 8.533l-14.133 8.8c-0.533 0.533-1.6 0.533-2.133 0l-14.133-8.8c-0.422-0.298-0.694-0.784-0.694-1.333 0-0.899 0.729-1.628 1.628-1.628 0.349 0 0.673 0.11 0.938 0.298l-0.005-0.003 13.333 8 13.333-8c0.26-0.184 0.584-0.294 0.933-0.294 0.899 0 1.628 0.729 1.628 1.628 0 0.549-0.272 1.035-0.689 1.33l-0.005 0.003z"></path>
    </symbol>
    <symbol id="icon-Vector-5-1" viewBox="0 0 32 32">
    <path d="M28.8 21.908l-4.185-0.492c-1.231-0.246-2.215 0-2.954 0.985l-3.2 3.2c-4.923-2.462-9.354-6.646-11.815-11.815l3.2-3.2c0.985-0.738 1.231-1.969 1.231-2.954l-1.231-4.431c0.246-1.969-1.477-3.2-3.2-3.2h-2.954c-2.215 0-3.692 1.723-3.692 3.692 0.985 15.262 13.046 27.323 28.308 28.308 1.969 0 3.692-1.477 3.692-3.446v-3.2c0-1.723-1.231-3.2-3.2-3.446z"></path>
    </symbol>
    <symbol id="icon-hamburger" viewBox="0 0 47 32">
<path stroke-linejoin="round" stroke-linecap="round" stroke-miterlimit="4" stroke-width="4.3636" d="M1.891 29.091h43.2M1.891 15.564h43.2M1.891 2.036h43.2"></path>
</symbol>
    
  </defs>
</svg>
